<?xml version="1.0" standalone="no"?><!DOCTYPE svg PUBLIC "-//W3C//DTD SVG 1.1//EN" "http://www.w3.org/Graphics/SVG/1.1/DTD/svg11.dtd"><svg t="1748572506300" class="icon" viewBox="0 0 1024 1024" version="1.1" xmlns="http://www.w3.org/2000/svg" p-id="6300" xmlns:xlink="http://www.w3.org/1999/xlink" width="200" height="200"><path d="M740.16 308.6v-24.14h56.53c31.39 0 56.92-25.53 56.92-56.92V124.05c0-31.39-25.53-56.92-56.92-56.92H227.51c-31.39 0-56.92 25.53-56.92 56.92v103.49c0 31.39 25.53 56.92 56.92 56.92h56.53v24.14c0 83.82 43.48 158.77 111.44 201.09-67.94 44.88-111.44 124.34-111.44 213.13v16.98h-56.53c-31.39 0-56.92 25.53-56.92 56.92V900.2c0 31.39 25.53 56.93 56.92 56.93H796.7c31.39 0 56.92-25.54 56.92-56.93V796.72c0-31.39-25.53-56.92-56.92-56.92h-56.53v-16.98c0-88.79-43.49-168.26-111.44-213.13 67.95-42.33 111.43-117.27 111.43-201.09zM232.68 129.22h558.84v93.14H232.68v-93.14z m558.84 765.81H232.68v-93.14h558.84v93.14z m-246.94-416.4c-0.42 0.1-0.78 0.3-1.19 0.42-1.18 0.34-2.32 0.74-3.45 1.22-0.82 0.34-1.61 0.7-2.38 1.11-0.96 0.51-1.88 1.06-2.78 1.66-0.8 0.53-1.57 1.08-2.31 1.67-0.8 0.65-1.55 1.34-2.29 2.07-0.69 0.68-1.35 1.37-1.97 2.11-0.66 0.78-1.25 1.6-1.83 2.45-0.57 0.83-1.09 1.66-1.58 2.54-0.47 0.85-0.88 1.72-1.27 2.62-0.44 1.02-0.82 2.06-1.16 3.13-0.14 0.46-0.38 0.87-0.5 1.35-0.11 0.43-0.11 0.87-0.2 1.3-0.24 1.1-0.4 2.21-0.52 3.34-0.1 0.98-0.17 1.95-0.18 2.92-0.01 0.99 0.05 1.98 0.14 2.98 0.1 1.11 0.24 2.2 0.46 3.28 0.09 0.45 0.08 0.89 0.19 1.33 0.07 0.29 0.26 0.5 0.34 0.78 0.81 2.98 2 5.8 3.63 8.4 0.28 0.45 0.61 0.84 0.92 1.27 1.71 2.44 3.69 4.69 6.06 6.56 0.08 0.06 0.14 0.15 0.22 0.21 2.33 1.8 5.01 3.16 7.86 4.26 0.61 0.24 1.19 0.47 1.81 0.67 0.52 0.16 0.98 0.42 1.51 0.56 78.87 20.5 133.96 96.15 133.96 183.97v16.98H346.13v-16.98c0-87.82 55.09-163.48 133.96-183.97 0.53-0.14 0.99-0.4 1.51-0.56 0.62-0.2 1.2-0.43 1.8-0.67 2.86-1.1 5.54-2.47 7.87-4.27 0.07-0.05 0.12-0.12 0.19-0.18 2.39-1.88 4.38-4.15 6.1-6.6 0.3-0.43 0.63-0.81 0.9-1.25 1.64-2.59 2.82-5.42 3.64-8.4 0.08-0.28 0.27-0.5 0.34-0.78 0.11-0.45 0.1-0.89 0.19-1.33 0.21-1.08 0.36-2.17 0.46-3.28 0.09-1 0.15-1.99 0.14-2.98-0.01-0.97-0.08-1.94-0.18-2.92a30.94 30.94 0 0 0-0.52-3.34c-0.09-0.43-0.09-0.87-0.2-1.3-0.12-0.48-0.36-0.89-0.5-1.36-0.33-1.06-0.71-2.08-1.15-3.1-0.4-0.92-0.82-1.82-1.3-2.69-0.46-0.84-0.97-1.64-1.5-2.43-0.61-0.9-1.25-1.77-1.94-2.6-0.57-0.67-1.17-1.3-1.8-1.93-0.8-0.8-1.62-1.56-2.51-2.27-0.65-0.52-1.33-1-2.03-1.47-1.01-0.68-2.03-1.3-3.11-1.86-0.66-0.34-1.34-0.65-2.04-0.95-1.24-0.53-2.51-0.98-3.82-1.35-0.35-0.1-0.66-0.27-1.01-0.36-78.6-19.1-133.48-89.03-133.48-170.04v-24.14h331.93v24.14c-0.01 81.04-54.89 150.96-133.49 170.06z" fill="#666666" p-id="6301"></path></svg>