<?xml version="1.0" standalone="no"?><!DOCTYPE svg PUBLIC "-//W3C//DTD SVG 1.1//EN" "http://www.w3.org/Graphics/SVG/1.1/DTD/svg11.dtd"><svg t="1748572456393" class="icon" viewBox="0 0 1024 1024" version="1.1" xmlns="http://www.w3.org/2000/svg" p-id="5950" xmlns:xlink="http://www.w3.org/1999/xlink" width="200" height="200"><path d="M851.49 957.13H172.7c-33.92 0-61.51-27.58-61.51-61.5V128.65c0-33.92 27.59-61.52 61.51-61.52h458.71a61.55 61.55 0 0 1 40.14 14.9L891.62 271.5A61.47 61.47 0 0 1 913 318.12v577.51c0 33.92-27.59 61.5-61.51 61.5zM172.7 128l-0.64 767.63 679.43 0.63 0.64-578.14-220.3-189.97a0.645 0.645 0 0 0-0.42-0.16H172.7z" fill="#6c757d" p-id="5951"></path><path d="M778.56 648.76v-60.4c0-0.86-0.7-1.57-1.57-1.57H247.21c-0.86 0-1.57 0.7-1.57 1.57v60.4c0 0.86 0.7 1.57 1.57 1.57H777c0.86 0 1.56-0.7 1.56-1.57zM778.56 778.82v-60.4c0-0.86-0.7-1.57-1.57-1.57H247.21c-0.86 0-1.57 0.7-1.57 1.57v60.4c0 0.86 0.7 1.57 1.57 1.57H777c0.86-0.01 1.56-0.71 1.56-1.57zM878.81 360.01l-165.12-2.62c-36.3-0.44-70.81-11.15-97.05-30.16-29.03-21.02-45.45-50.86-45.07-81.89l1.99-127.18 60.87 0.95-1.99 127.08c-0.19 14.92 12.39 26.29 19.9 31.74 15.93 11.53 38.61 18.31 62.21 18.58l165.24 2.62-0.98 60.88zM473.66 437.57H245.23V209.13h228.43v228.44zM306.1 376.71h106.7V270H306.1v106.71z" fill="#6c757d" p-id="5952"></path></svg>